<?xml version="1.0" standalone="no"?>
<!DOCTYPE svg PUBLIC "-//W3C//DTD SVG 20010904//EN"
 "http://www.w3.org/TR/2001/REC-SVG-20010904/DTD/svg10.dtd">
<svg version="1.0" xmlns="http://www.w3.org/2000/svg"
 width="273.000000pt" height="273.000000pt" viewBox="0 0 273.000000 273.000000"
 preserveAspectRatio="xMidYMid meet">
<metadata>
Created by potrace 1.11, written by Peter Selinger 2001-2013
</metadata>
<g transform="translate(0.000000,273.000000) scale(0.100000,-0.100000)"
fill="#000000" stroke="none">
<path d="M1155 2720 c-22 -4 -56 -11 -75 -14 -45 -7 -137 -34 -175 -51 -16 -7
-52 -23 -80 -35 -91 -41 -216 -130 -305 -218 -141 -140 -243 -316 -297 -512
-24 -86 -27 -112 -27 -275 0 -164 2 -189 26 -278 105 -387 382 -671 780 -801
239 -79 503 -84 721 -15 96 30 254 112 337 175 141 107 291 279 408 466 59 94
152 283 152 307 0 24 -28 40 -127 71 l-71 22 -1 67 c-8 521 -373 966 -886
1077 -79 18 -319 26 -380 14z"/>
<path d="M114 370 c-12 -4 -31 -21 -44 -37 -17 -22 -21 -36 -17 -68 7 -49 38
-76 114 -100 29 -9 60 -23 67 -31 15 -15 10 -53 -8 -60 -55 -20 -102 -4 -111
37 -6 25 -11 29 -42 29 -35 0 -35 -1 -29 -32 4 -18 22 -49 41 -68 30 -30 42
-35 87 -36 87 -3 138 37 138 109 0 52 -39 90 -113 112 -30 9 -61 22 -67 30
-18 22 -8 48 24 56 36 10 64 -4 76 -37 13 -32 70 -36 70 -4 0 77 -104 133
-186 100z"/>
<path d="M1595 368 c-67 -24 -104 -88 -105 -181 0 -69 24 -123 72 -160 27 -22
41 -25 90 -23 105 5 160 69 160 186 0 91 -33 147 -101 176 -39 16 -74 17 -116
2z m129 -92 c52 -80 17 -195 -63 -211 -78 -15 -131 100 -91 196 25 61 118 69
154 15z"/>
<path d="M1920 369 c-32 -12 -60 -57 -60 -97 0 -45 36 -79 114 -107 38 -13 73
-30 77 -36 13 -21 -7 -54 -39 -63 -38 -11 -79 12 -88 49 -5 21 -12 25 -40 25
-41 0 -44 -15 -12 -71 34 -61 124 -87 188 -54 40 21 60 53 60 98 0 50 -37 88
-110 112 -30 10 -61 22 -67 28 -22 16 -15 47 12 57 33 13 72 -3 87 -35 15 -33
68 -37 68 -5 0 80 -100 132 -190 99z"/>
<path d="M2358 364 c-43 -18 -63 -58 -54 -108 8 -41 39 -66 114 -90 49 -17 82
-38 82 -55 0 -24 -31 -45 -65 -45 -40 0 -75 30 -75 63 0 14 -7 16 -35 13 -41
-5 -45 -21 -15 -70 67 -110 247 -87 252 32 2 52 -28 87 -98 114 -81 31 -89 36
-92 61 -3 15 4 24 25 32 35 13 69 -1 85 -36 9 -19 19 -25 43 -25 30 0 32 2 27
28 -16 85 -102 124 -194 86z"/>
<path d="M395 263 c64 -106 65 -109 65 -180 l0 -73 35 0 35 0 0 75 c0 74 1 77
55 164 73 119 74 121 37 121 -33 0 -42 -9 -96 -97 l-32 -53 -44 75 c-43 72
-46 75 -82 75 l-37 0 64 -107z"/>
<path d="M679 363 c-1 -5 -2 -86 -3 -181 l-1 -173 34 3 34 3 0 95 -1 95 37
-95 c35 -89 39 -95 65 -95 29 0 40 20 86 155 8 25 8 25 10 -5 1 -16 2 -58 1
-93 l-2 -62 36 0 35 0 0 181 0 180 -37 -3 c-33 -3 -38 -7 -54 -48 -58 -150
-75 -190 -79 -190 -3 0 -25 54 -48 120 l-44 120 -34 0 c-19 0 -35 -3 -35 -7z"/>
<path d="M1051 191 l-1 -181 102 1 c101 0 102 1 135 34 42 42 46 102 10 139
-20 20 -22 26 -10 42 21 29 16 80 -11 111 -23 27 -29 28 -125 31 l-100 4 0
-181z m172 107 c44 -22 4 -68 -59 -68 -43 0 -44 1 -44 33 0 19 3 37 7 41 9 9
73 5 96 -6z m1 -139 c14 -7 27 -17 29 -23 9 -23 -12 -54 -40 -59 -37 -7 -93
-4 -93 6 0 4 0 25 0 47 0 40 0 40 40 40 21 0 50 -5 64 -11z"/>
<path d="M1378 363 c-2 -5 -4 -84 -3 -178 l0 -170 34 0 33 0 0 150 c0 83 -1
162 -1 178 -1 23 -5 27 -30 27 -17 0 -31 -3 -33 -7z"/>
<path d="M2175 190 l0 -180 33 0 c23 0 32 5 33 18 1 22 1 313 0 330 -1 7 -15
12 -33 12 l-33 0 0 -180z"/>
</g>
</svg>
